<svg width="17" height="17" viewBox="0 0 17 17" fill="none" xmlns="http://www.w3.org/2000/svg">
<g id="SVG" clip-path="url(#clip0_1_534)">
<g id="Group">
<g id="Group_2">
<path id="Sold-house-prices" fill-rule="evenodd" clip-rule="evenodd" d="M8.58159 0.810791L16.1825 7.32586C16.4358 7.54298 16.5816 7.85994 16.5816 8.19357V15.6679C16.5816 16.2991 16.0699 16.8108 15.4387 16.8108H1.72445C1.09326 16.8108 0.581589 16.2991 0.581589 15.6679V8.19357C0.581589 7.85994 0.727375 7.54298 0.980685 7.32586L8.58159 0.810791ZM8.58159 2.31602L1.72445 8.19357V15.6679H15.4387V8.19357L8.58159 2.31602ZM9.10561 6.14412C9.38508 6.14412 9.6335 6.17619 9.85088 6.24032C10.0682 6.30445 10.2565 6.37989 10.4156 6.46665C10.5748 6.55342 10.7068 6.64207 10.8116 6.7326C10.9164 6.82314 10.9998 6.89481 11.0619 6.94762L10.3865 7.67191C10.2468 7.52856 10.0818 7.39652 9.89163 7.27581C9.70143 7.15509 9.43943 7.09474 9.10561 7.09474C8.87271 7.09474 8.67669 7.13812 8.51754 7.22488C8.3584 7.31165 8.23224 7.4267 8.13908 7.57005C8.04593 7.7134 7.97994 7.87938 7.94112 8.06799C7.90231 8.25661 7.8829 8.45654 7.8829 8.66779V9.36944H10.2119V10.2295H7.8829V12.5042H11.2483V13.4775H6.76499V10.2295H5.91492V9.36944H6.76499V8.45277C6.76499 8.24906 6.79411 8.0133 6.85233 7.74546C6.91056 7.47763 7.02312 7.22489 7.19003 6.98723C7.35694 6.74958 7.59372 6.54965 7.90037 6.38744C8.20701 6.22523 8.60876 6.14412 9.10561 6.14412Z" fill="#000433"/>
</g>
</g>
</g>
<defs>
<clipPath id="clip0_1_534">
<rect width="16" height="16" fill="white" transform="translate(0.581589 0.810791)"/>
</clipPath>
</defs>
</svg>
